<svg width="100%" height="100%" viewBox="0 0 3402 4167" xmlns="http://www.w3.org/2000/svg">
    <style>
        /* --- MODO CLARO (Por defecto) --- */
        .casa { fill: #6E3B3B; }    /* Terracota */
        .cuchara { fill: #AC3F21; } /* Naranja */

        /* --- MODO OSCURO (Cuando el usuario tiene tema Dark) --- */
        @media (prefers-color-scheme: dark) {
            /* En modo oscuro, pasamos todo a Crema para que contraste con el negro */
            .casa { fill: #BE6A15; }
            .cuchara { fill: #F3CF7A; } 
        }
    </style>
    
    <g id="isotipo">
        <path class="casa" d="M1685.396,365.526c-11.333,0.247 -85.084,1.853 -133.498,47.502c-430.624,406.027 -433.476,402.282 -543.64,508.82c-590.073,570.653 -629.923,554.709 -638.924,677.511c-3.935,53.688 -0.998,1401.029 -0.733,1522.857c1.216,557.925 -14.789,587.739 87.337,653.591c49.196,31.722 53.605,28.322 941.41,28.254c1435.854,-0.11 1440.505,3.825 1486.388,-25.332c123.209,-78.294 82.915,-180.105 88.342,-697.717c2.047,-195.248 271.973,-255.993 351.509,-75.3c24.589,55.861 23.089,654.118 -0.669,752.407c-56.466,233.609 -275.708,398.369 -485.093,407.859c-26.03,1.18 -2308.673,0.518 -2316.577,0.353c-254.53,-5.334 -452.95,-205.934 -500.476,-402.994c-20.62,-85.499 -20.542,-85.669 -20.774,-1975.928c-0.063,-516.295 96.318,-502.93 583.479,-966.488c35.451,-33.733 303.307,-288.612 444.981,-419.723c284.919,-263.676 395.735,-392.714 586.607,-400.033c343.766,-13.182 332.256,71.401 1325.54,989.797c386.494,357.354 410.284,382.986 397.124,908.163c-2.88,114.936 -136.176,184.618 -211.576,164.563c-182.997,-48.675 -154.235,-191.524 -154.188,-370.376c0.052,-198.267 -26.723,-200.139 -268.461,-424.153c-931.323,-863.043 -919.941,-893.3 -1018.11,-903.632Z" />
        
        <path class="cuchara" d="M1373.866,3297.792c-277.925,-21.721 -449.172,-242.758 -495.861,-380.653c-94.796,-279.975 15.681,-401.265 -5.947,-470.557c-156.02,-499.845 290.461,-895.809 725.811,-755.753c383.051,123.231 564.429,464.055 618.923,517.626c117.402,115.413 209.604,85.584 997.574,88.387c235.068,0.836 272.473,366.196 -23.543,365.748l-687.99,-0.008c-285.575,0.446 -272.303,92.409 -411.378,254.035c-344.985,400.924 -612.311,379.984 -717.588,381.175Zm123.419,-375.61c46.052,-16.406 248.853,-88.652 445.322,-418.472c9.169,-15.393 22.66,-38.04 -106.235,-197.161c-377.943,-466.572 -613.916,-233.723 -630.678,-95.265c-19.108,157.842 71.799,218.778 119.131,260.172c20.271,17.728 -1.628,17.511 -32.284,46.186c-208.226,194.772 -23.722,478.921 204.744,404.54Z" />
    </g>
</svg>