<svg width="100%" height="100%" viewBox="0 0 781 1000" version="1.1" xmlns="http://www.w3.org/2000/svg" style="fill-rule:evenodd;clip-rule:evenodd;stroke-linejoin:round;stroke-miterlimit:2;">
  <g id="icon_final">
    <path d="M323.539,752.659c-1.927,22.914 -1.681,22.787 -12.384,202.348c-0.416,6.981 -4.989,0.478 -59.83,-63.734c-150.936,-176.727 -243.951,-356.633 -250.3,-458.349c-17.741,-284.236 198.577,-420.357 353.858,-431.7c272.298,-19.892 441.347,206.166 424.59,422.621c-2.727,35.227 -12.671,163.679 -193.697,396.91c-57.245,73.754 -114.093,136.868 -116.478,136.071c-0.584,-0.195 -3.656,-81.816 -6.159,-101.346c-0.686,-5.357 -8.647,-139.269 -9.367,-151.381c-3.325,-55.934 27.993,-38.036 79.193,-80.82c183.811,-153.596 97.177,-453.383 -124.977,-475.06c-196.46,-19.17 -352.368,240.663 -199.648,435.849c58.637,74.942 115.024,62.582 119.007,106.463c0.026,0.29 -3.5,57.158 -3.808,62.128Z" style="fill:#ac3f21;"/>
    <path d="M423.48,705.203c0.94,28.845 10.371,161.689 12.957,214.652c0.976,19.989 13.194,66.646 -37.444,79.318c-14.251,3.566 -57.62,-2.863 -57.038,-49.943c0.075,-6.063 19.122,-312.56 20.275,-327.615c7.403,-96.681 -32.384,-83.051 -61.298,-131.259c-67.72,-112.91 62.619,-356.624 161.442,-199.915c29.067,46.094 59.911,158.144 4.088,216.777c-25.129,26.394 -54.906,34.05 -48.883,109.826c0.56,7.046 4.854,61.061 5.901,88.16Z" style="fill:#be6a15;"/>
  </g>
</svg>
